<?xml version="1.0" encoding="iso-8859-1"?>
<!-- Generator: Adobe Illustrator 19.0.0, SVG Export Plug-In . SVG Version: 6.00 Build 0)  -->
<svg xmlns="http://www.w3.org/2000/svg" xmlns:xlink="http://www.w3.org/1999/xlink" version="1.1" id="Capa_1" x="0px" y="0px" viewBox="0 0 511.999 511.999" style="enable-background:new 0 0 511.999 511.999;" xml:space="preserve">
<path style="fill:#D59A4C;" d="M172.853,172.362v38.847h-67.677v-38.847c0-10.727,8.657-19.423,19.336-19.423h29.004  C164.196,152.939,172.853,161.635,172.853,172.362z M385.552,152.939h-29.004c-10.679,0-19.336,8.696-19.336,19.423v38.847h67.677  v-38.847C404.888,161.635,396.231,152.939,385.552,152.939z M270.501,152.939h-29.004c-10.679,0-19.336,8.696-19.336,19.423v38.847  h67.677v-38.847C289.838,161.635,281.18,152.939,270.501,152.939z"/>
<path style="fill:#BC8544;" d="M173.82,172.362v38.847h-20.303v-38.847c0-10.727-8.657-19.423-19.336-19.423h20.303  C165.163,152.939,173.82,161.635,173.82,172.362z M271.468,152.939h-20.303c10.679,0,19.336,8.696,19.336,19.423v38.847h20.303  v-38.847C290.804,161.635,282.147,152.939,271.468,152.939z M386.519,152.939h-20.303c10.679,0,19.336,8.696,19.336,19.423v38.847  h20.303v-38.847C405.855,161.635,397.198,152.939,386.519,152.939z"/>
<path style="fill:#F24F43;" d="M474.499,191.776v0.112c0,58.943-47.614,106.725-106.35,106.725H143.848  c-58.735,0-106.349-47.782-106.349-106.725v-0.112c0-5.358,4.328-9.702,9.668-9.702h417.664  C470.17,182.074,474.499,186.418,474.499,191.776z M149.649,450.6c-14.817,0-26.829,12.066-26.829,26.95s12.012,26.95,26.829,26.95  s26.829-12.066,26.829-26.95C176.479,462.666,164.467,450.6,149.649,450.6z M362.349,450.6c-14.817,0-26.829,12.066-26.829,26.95  s12.012,26.95,26.829,26.95s26.829-12.066,26.829-26.95C389.178,462.666,377.166,450.6,362.349,450.6z"/>
<path style="fill:#ED322E;" d="M474.499,191.786L474.499,191.786c0,59-47.614,106.828-106.35,106.828h-29.004  c58.735,0,106.35-47.828,106.35-106.828v-9.712h19.336C470.17,182.074,474.499,186.422,474.499,191.786z"/>
<path style="fill:#B4322E;" d="M161.976,477.55c0,6.839-5.519,12.382-12.327,12.382s-12.327-5.544-12.327-12.382  c0-6.839,5.519-12.382,12.327-12.382C156.457,465.168,161.976,470.712,161.976,477.55z M362.349,465.168  c-6.808,0-12.327,5.544-12.327,12.382c0,6.839,5.519,12.382,12.327,12.382s12.327-5.544,12.327-12.382  C374.675,470.712,369.156,465.168,362.349,465.168z"/>
<path d="M251.585,66.182c-15.435-15.497-14.593-32.212-11.17-43.506c3.528-11.639,10.533-19.763,10.829-20.103  c2.722-3.123,7.457-3.448,10.582-0.727c3.115,2.716,3.446,7.437,0.745,10.561c-0.054,0.063-5.407,6.366-7.923,15.033  c-3.11,10.713-0.636,19.923,7.564,28.156c24.725,24.824,1.987,61.181,1.008,62.717c-1.431,2.241-3.854,3.466-6.329,3.466  c-1.381,0-2.777-0.381-4.028-1.179c-3.491-2.229-4.516-6.865-2.287-10.357C250.741,109.982,267.81,82.472,251.585,66.182z   M197.395,110.254c-2.22,3.49-1.193,8.119,2.294,10.346c1.251,0.798,2.647,1.179,4.028,1.179c2.475,0,4.898-1.225,6.329-3.466  c0.979-1.536,23.717-37.893-1.008-62.717c-8.2-8.233-10.675-17.443-7.564-28.156c2.516-8.667,7.868-14.971,7.904-15.012  c2.722-3.123,2.396-7.86-0.727-10.582c-3.125-2.722-7.861-2.396-10.582,0.727c-0.296,0.341-7.301,8.465-10.829,20.103  c-3.423,11.294-4.265,28.009,11.17,43.506C214.584,82.42,197.675,109.807,197.395,110.254z M303.751,110.243  c-2.229,3.492-1.204,8.129,2.287,10.357c1.251,0.798,2.647,1.179,4.028,1.179c2.475,0,4.898-1.225,6.329-3.466  c0.979-1.536,23.717-37.893-1.008-62.717c-8.2-8.233-10.675-17.443-7.564-28.156c2.516-8.667,7.868-14.971,7.923-15.033  c2.701-3.123,2.37-7.845-0.745-10.561c-3.125-2.722-7.86-2.396-10.582,0.727c-0.296,0.341-7.301,8.465-10.828,20.103  c-3.424,11.294-4.266,28.009,11.169,43.506C320.984,82.472,303.916,109.982,303.751,110.243z M148.905,260.209  c-23.428,0-45.059-11.79-57.863-31.538c-2.254-3.475-6.896-4.466-10.373-2.213c-3.476,2.254-4.467,6.897-2.213,10.373  c15.581,24.031,41.917,38.378,70.449,38.378c4.143,0,7.5-3.357,7.5-7.5S153.048,260.209,148.905,260.209z M354.849,477.078v0.971  c0,4.143,3.357,7.5,7.5,7.5s7.5-3.357,7.5-7.5v-0.971c0-4.143-3.357-7.5-7.5-7.5S354.849,472.936,354.849,477.078z M142.149,477.078  v0.971c0,4.143,3.357,7.5,7.5,7.5s7.5-3.357,7.5-7.5v-0.971c0-4.143-3.357-7.5-7.5-7.5S142.149,472.936,142.149,477.078z   M369.849,306.198v137.756c15.334,3.44,26.829,17.203,26.829,33.608c0,18.989-15.4,34.437-34.329,34.437  s-34.329-15.448-34.329-34.437c0-16.405,11.495-30.168,26.829-33.608v-60.087h-197.7v60.087  c15.334,3.44,26.829,17.203,26.829,33.608c0,18.989-15.4,34.437-34.329,34.437s-34.329-15.448-34.329-34.437  c0-16.405,11.495-30.168,26.829-33.608V306.198c-61.997-0.914-112.15-51.821-112.15-114.264c0-9.488,7.701-17.207,17.168-17.207  h50.509v-2.207c0-14.841,12.039-26.914,26.837-26.914h29.004c14.798,0,26.836,12.073,26.836,26.914v2.207h34.308v-2.207  c0-14.841,12.039-26.914,26.837-26.914h29.004c14.798,0,26.837,12.073,26.837,26.914v2.207h32.373v-2.207  c0-14.841,12.039-26.914,26.837-26.914h29.004c14.798,0,26.837,12.073,26.837,26.914v2.207h52.442  c9.467,0,17.168,7.719,17.168,17.207C481.999,254.377,431.846,305.284,369.849,306.198z M344.711,174.727h52.678v-2.207  c0-6.569-5.31-11.914-11.837-11.914h-29.004c-6.527,0-11.837,5.345-11.837,11.914V174.727z M229.66,174.727h52.678v-2.207  c0-6.569-5.31-11.914-11.837-11.914h-29.004c-6.527,0-11.837,5.345-11.837,11.914L229.66,174.727L229.66,174.727z M149.649,458.126  c-10.658,0-19.329,8.719-19.329,19.436S138.991,497,149.649,497s19.329-8.72,19.329-19.437S160.308,458.126,149.649,458.126z   M362.349,458.126c-10.658,0-19.329,8.719-19.329,19.436S351.69,497,362.349,497s19.329-8.72,19.329-19.437  S373.007,458.126,362.349,458.126z M466.999,191.934c0-1.217-0.973-2.207-2.168-2.207H153.518c-4.143,0-7.5-3.357-7.5-7.5  s3.357-7.5,7.5-7.5h11.835v-2.207c0-6.569-5.31-11.914-11.836-11.914h-29.004c-6.527,0-11.837,5.345-11.837,11.914v2.207h13.286  c4.143,0,7.5,3.357,7.5,7.5s-3.357,7.5-7.5,7.5H47.167c-1.195,0-2.168,0.99-2.168,2.207c0,54.742,44.344,99.277,98.85,99.277  h155.657c4.143,0,7.5,3.357,7.5,7.5s-3.357,7.5-7.5,7.5H157.149v62.656h197.7v-62.656h-22.471c-4.143,0-7.5-3.357-7.5-7.5  s3.357-7.5,7.5-7.5h35.771C422.655,291.211,466.999,246.676,466.999,191.934z"/>
<g>
</g>
<g>
</g>
<g>
</g>
<g>
</g>
<g>
</g>
<g>
</g>
<g>
</g>
<g>
</g>
<g>
</g>
<g>
</g>
<g>
</g>
<g>
</g>
<g>
</g>
<g>
</g>
<g>
</g>
</svg>
