<svg xmlns="http://www.w3.org/2000/svg" viewBox="0 0 512 512"><title>Artboard 158</title><g id="Fried_Egg" data-name="Fried Egg"><path d="M490.66667,298.66667c0,129.60282-105.06385,170.66666-234.66667,170.66666S21.33333,428.26949,21.33333,298.66667s105.06385-256,234.66667-256C405.33333,42.66667,490.66667,213.33333,490.66667,298.66667Z" style="fill:#eae2ce"/><path d="M256,469.33333V384c149.33333,0,149.33333-55.52083,149.33333-85.33333h85.33334C490.66667,411.91667,411.70833,469.33333,256,469.33333Z" style="fill:#e0d4b7"/><path d="M256,469.33333c-193.95833,0-234.66667-92.8125-234.66667-170.66666H42.66667C42.66667,399.14583,112.45833,448,256,448s213.33333-48.85417,213.33333-149.33333C469.33333,215.9375,388.33333,64,256,64V42.66667c145.5625,0,234.66667,165.75,234.66667,256C490.66667,376.52083,449.95833,469.33333,256,469.33333Z" style="fill:#e0d4b7"/><path d="M245.33333,362.625A116.45692,116.45692,0,0,1,162.375,328.29167l15.08333-15.08334a95.98976,95.98976,0,0,0,135.75-135.75L328.29167,162.375a117.29167,117.29167,0,0,1-82.95834,200.25Z" style="fill:#e0d4b7"/><circle cx="245.33333" cy="245.33333" r="96" style="fill:#fdab00"/><path d="M147.29167,343.375A138.65187,138.65187,0,0,1,343.375,147.29167L328.29167,162.375A117.32082,117.32082,0,0,0,162.375,328.29167Z" style="fill:#f3eee3"/><ellipse cx="213.33333" cy="213.33333" rx="48.60012" ry="35.75522" transform="translate(-88.36556 213.33333) rotate(-45)" style="fill:#fdbc34"/><ellipse cx="213.33333" cy="192" rx="24.30006" ry="17.87761" transform="translate(-73.28062 207.08494) rotate(-45)" style="fill:#fee3aa"/><path d="M245.33333,341.3125a95.28179,95.28179,0,0,1-67.875-28.10417L207.625,283.04167c20.125,20.125,55.29167,20.125,75.41667,0a53.36424,53.36424,0,0,0,0-75.41667l30.16666-30.16667a95.97917,95.97917,0,0,1-67.875,163.85417Z" style="fill:#f59707"/></g></svg>