<svg xmlns="http://www.w3.org/2000/svg" viewBox="0 0 512 512"><defs><style>.cls-1{fill:#dc7da7;}.cls-2{fill:#313d74;}.cls-3{fill:#fff;}.cls-4{fill:#d9d9d9;}.cls-5{fill:#f0c788;}.cls-6{fill:#253d3a;}.cls-7{fill:#1e2f2c;}.cls-8{fill:#c27135;}.cls-9{fill:#f0d1a7;}.cls-10{fill:#ad7d55;}.cls-11{fill:#96663e;}.cls-12{fill:#986f4d;}.cls-13{fill:#805938;}.cls-14{fill:#a2b833;}.cls-15{fill:#94a22f;}</style></defs><title>Food</title><g id="BULINE"><circle class="cls-1" cx="256" cy="256" r="256"/></g><g id="Icons"><path class="cls-2" d="M496.93,342.72C461.4,441.42,366.94,512,256,512S50.6,441.42,15.07,342.72Z"/><path class="cls-3" d="M481.38,231.68a6.16,6.16,0,0,1-1.68-8.31A15.25,15.25,0,0,0,466.81,200h-.22a15.42,15.42,0,0,0,.22-2.56,15.22,15.22,0,0,0-6.22-12.29A9.42,9.42,0,0,1,457,176a14.79,14.79,0,0,0,.19-2.41,15.26,15.26,0,0,0-15.26-15.26l-.61,0a15.27,15.27,0,0,0-6.53-17.2,8,8,0,0,1-3.81-6.92V134a15.26,15.26,0,0,0-15.26-15.25q-.49,0-1,0a15.25,15.25,0,0,0-24.51-16.71.87.87,0,0,1-1.46-.67v0a15.26,15.26,0,1,0-30.51,0q0,.47,0,.93a15.25,15.25,0,0,0-24.77,16.47c-.33,0-.66,0-1,0A15.25,15.25,0,0,0,317.24,134v.24a8,8,0,0,1-3.81,6.92,15.21,15.21,0,0,0-6.53,17.2l-.62,0A15.26,15.26,0,0,0,291,173.61c0,.23,0,.46,0,.69a14.86,14.86,0,0,1-4.65,11.79,15.23,15.23,0,0,0-5,11.3,15.42,15.42,0,0,0,.22,2.56h-.22a15.25,15.25,0,0,0-12.89,23.42,6.18,6.18,0,0,1-1.68,8.31,15.26,15.26,0,0,0,7.59,27.68c.46,0,.91.05,1.37,0a50.83,50.83,0,0,1,21.09,4.5,41.88,41.88,0,0,0,17.07,3.53H433a41.77,41.77,0,0,0,16.66-3.36,58.39,58.39,0,0,1,23-4.66l.72,0a15.26,15.26,0,0,0,8-27.71Z"/><path class="cls-4" d="M381.12,111.53a15.26,15.26,0,0,0,.88,7.26q-.48,0-1,0A15.26,15.26,0,0,0,365.75,134v.24a8,8,0,0,1-3.8,6.92,15.26,15.26,0,0,0-6.54,17.2l-.61,0a15.26,15.26,0,0,0-15.26,15.26c0,.23,0,.46,0,.69a14.9,14.9,0,0,1-4.65,11.79,15.24,15.24,0,0,0-5,11.3,14.42,14.42,0,0,0,.23,2.56h-.23A15.27,15.27,0,0,0,317,223.37a6.17,6.17,0,0,1-1.67,8.31,15.26,15.26,0,0,0,7.58,27.68c.46,0,.92.05,1.37,0a50.91,50.91,0,0,1,21.1,4.5,41.67,41.67,0,0,0,17.06,3.53H313.94a41.72,41.72,0,0,1-17.07-3.53,50.83,50.83,0,0,0-21.09-4.5c-.46,0-.91,0-1.38,0a15.26,15.26,0,0,1-7.58-27.68,6.17,6.17,0,0,0,1.68-8.31A15.25,15.25,0,0,1,281.39,200h.22a14.42,14.42,0,0,1-.22-2.56,15.23,15.23,0,0,1,5-11.3A14.83,14.83,0,0,0,291,174.3c0-.23,0-.46,0-.69a15.26,15.26,0,0,1,15.26-15.26l.6,0a15.53,15.53,0,0,1-.6-4.28,15.21,15.21,0,0,1,7.14-12.92,8,8,0,0,0,3.81-6.92V134a15.26,15.26,0,0,1,15.26-15.25q.5,0,1,0a15.14,15.14,0,0,1-.89-7.26,15.26,15.26,0,0,1,25.66-9.21c0-.3,0-.62,0-.93a15.25,15.25,0,0,1,30.45-1.24A15.27,15.27,0,0,0,381.12,111.53Z"/><circle class="cls-5" cx="307.54" cy="195.3" r="6"/><circle class="cls-5" cx="284.53" cy="240.89" r="6"/><circle class="cls-5" cx="346.59" cy="189.3" r="6"/><path class="cls-6" d="M374.1,201.29h0a38.76,38.76,0,0,1,38.76,38.76v18.73a12.5,12.5,0,0,1-12.5,12.5H347.84a12.5,12.5,0,0,1-12.5-12.5V240.05a38.76,38.76,0,0,1,38.76-38.76Z"/><path class="cls-7" d="M371,271.28H347.84a12.5,12.5,0,0,1-12.5-12.5V240.05a38.76,38.76,0,0,1,50.34-37,38.74,38.74,0,0,0-27.17,37v18.73A12.5,12.5,0,0,0,371,271.28Z"/><path class="cls-8" d="M360,116.53,348.71,132.6a11.56,11.56,0,0,0,9.47,18.2H382.5a11.57,11.57,0,0,0,9-18.87L378.4,115.87A11.57,11.57,0,0,0,360,116.53Z"/><path class="cls-9" d="M361.64,231.68a6.17,6.17,0,0,1-1.68-8.31A15.25,15.25,0,0,0,347.07,200h-.22a15.42,15.42,0,0,0,.22-2.56,15.22,15.22,0,0,0-6.22-12.29,9.42,9.42,0,0,1-3.61-9.08,14.79,14.79,0,0,0,.19-2.41,15.26,15.26,0,0,0-15.25-15.26l-.62,0a15.21,15.21,0,0,0-6.53-17.2,8,8,0,0,1-3.81-6.92V134A15.25,15.25,0,0,0,296,118.76c-.34,0-.67,0-1,0a15.25,15.25,0,0,0-24.51-16.71.87.87,0,0,1-1.46-.67v0a15.26,15.26,0,1,0-30.51,0q0,.47,0,.93a15.25,15.25,0,0,0-24.77,16.47c-.33,0-.66,0-1,0A15.25,15.25,0,0,0,197.5,134v.24a8,8,0,0,1-3.81,6.92,15.21,15.21,0,0,0-6.53,17.2l-.62,0a15.26,15.26,0,0,0-15.25,15.26c0,.23,0,.46,0,.69a14.86,14.86,0,0,1-4.65,11.79,15.23,15.23,0,0,0-5,11.3,15.42,15.42,0,0,0,.22,2.56h-.22a15.25,15.25,0,0,0-12.89,23.42,6.17,6.17,0,0,1-1.68,8.31,15.26,15.26,0,0,0,7.59,27.68c.46,0,.92.05,1.37,0a50.83,50.83,0,0,1,21.09,4.5,41.88,41.88,0,0,0,17.07,3.53H313.29A41.86,41.86,0,0,0,330,264.07a58.31,58.31,0,0,1,23-4.66l.72,0a15.26,15.26,0,0,0,8-27.71Z"/><path class="cls-5" d="M261.38,111.53a15.14,15.14,0,0,0,.89,7.26c-.33,0-.66,0-1,0A15.25,15.25,0,0,0,246,134v.24a8,8,0,0,1-3.81,6.92,15.26,15.26,0,0,0-6.54,17.2l-.61,0a15.26,15.26,0,0,0-15.25,15.26c0,.23,0,.46,0,.69a14.86,14.86,0,0,1-4.65,11.79,15.24,15.24,0,0,0-5,11.3,14.42,14.42,0,0,0,.23,2.56h-.23a15.25,15.25,0,0,0-12.88,23.42,6.18,6.18,0,0,1-1.68,8.31,15.26,15.26,0,0,0,7.58,27.68c.46,0,.92.05,1.37,0a50.91,50.91,0,0,1,21.1,4.5,41.7,41.7,0,0,0,17.06,3.53H194.2a41.72,41.72,0,0,1-17.07-3.53A50.83,50.83,0,0,0,156,259.4c-.46,0-.91,0-1.38,0a15.26,15.26,0,0,1-7.58-27.68,6.17,6.17,0,0,0,1.68-8.31A15.25,15.25,0,0,1,161.65,200h.22a14.42,14.42,0,0,1-.22-2.56,15.23,15.23,0,0,1,5-11.3,14.87,14.87,0,0,0,4.66-11.79c0-.23,0-.46,0-.69a15.26,15.26,0,0,1,15.26-15.26l.6,0a15.53,15.53,0,0,1-.6-4.28,15.23,15.23,0,0,1,7.14-12.92,8,8,0,0,0,3.81-6.92V134a15.26,15.26,0,0,1,15.26-15.25q.5,0,1,0a15.25,15.25,0,0,1,24.77-16.47c0-.3,0-.62,0-.93a15.25,15.25,0,0,1,30.45-1.24A15.3,15.3,0,0,0,261.38,111.53Z"/><circle class="cls-10" cx="268.94" cy="146.92" r="6"/><circle class="cls-10" cx="210.78" cy="138.83" r="6"/><circle class="cls-5" cx="187.8" cy="195.3" r="6"/><circle class="cls-5" cx="164.8" cy="240.89" r="6"/><circle class="cls-10" cx="318.71" cy="189.3" r="6"/><circle class="cls-5" cx="226.85" cy="189.3" r="6"/><circle class="cls-10" cx="330.7" cy="234.89" r="6"/><circle class="cls-10" cx="274.94" cy="192.09" r="6"/><path class="cls-6" d="M254.36,201.29h0a38.76,38.76,0,0,1,38.76,38.76v18.73a12.5,12.5,0,0,1-12.5,12.5H228.1a12.5,12.5,0,0,1-12.5-12.5V240.05a38.76,38.76,0,0,1,38.76-38.76Z"/><path class="cls-7" d="M251.27,271.28H228.1a12.5,12.5,0,0,1-12.5-12.5V240.05a38.77,38.77,0,0,1,50.35-37,38.75,38.75,0,0,0-27.18,37v18.73A12.5,12.5,0,0,0,251.27,271.28Z"/><path class="cls-3" d="M241.17,231.68a6.17,6.17,0,0,1-1.67-8.31A15.27,15.27,0,0,0,226.61,200h-.22a15.42,15.42,0,0,0,.22-2.56,15.22,15.22,0,0,0-6.22-12.29,9.4,9.4,0,0,1-3.61-9.08,16,16,0,0,0,.19-2.41,15.26,15.26,0,0,0-15.26-15.26l-.61,0a15.27,15.27,0,0,0-6.53-17.2,8,8,0,0,1-3.81-6.92V134a15.26,15.26,0,0,0-15.26-15.25q-.5,0-1,0A15.25,15.25,0,0,0,150,102.08a.88.88,0,0,1-1.47-.67v0a15.26,15.26,0,1,0-30.51,0c0,.31,0,.62,0,.93a15.25,15.25,0,0,0-24.77,16.47q-.5,0-1,0A15.25,15.25,0,0,0,77,134v.24a8,8,0,0,1-3.81,6.92,15.22,15.22,0,0,0-7.15,12.92,15.53,15.53,0,0,0,.61,4.28l-.61,0a15.26,15.26,0,0,0-15.25,15.26c0,.23,0,.46,0,.69a14.86,14.86,0,0,1-4.65,11.79,15.23,15.23,0,0,0-5,11.3A15.43,15.43,0,0,0,41.4,200h-.21A15.25,15.25,0,0,0,28.3,223.37a6.18,6.18,0,0,1-1.68,8.31,15.26,15.26,0,0,0,7.58,27.68c.46,0,.92.05,1.37,0a50.91,50.91,0,0,1,21.1,4.5,41.87,41.87,0,0,0,17.06,3.53h119.1a41.77,41.77,0,0,0,16.66-3.36,58.36,58.36,0,0,1,23-4.66l.72,0a15.26,15.26,0,0,0,8-27.71Z"/><path class="cls-4" d="M140.92,111.53a15.14,15.14,0,0,0,.88,7.26q-.5,0-1,0A15.26,15.26,0,0,0,125.55,134v.24a8,8,0,0,1-3.81,6.92,15.27,15.27,0,0,0-6.53,17.2l-.61,0a15.26,15.26,0,0,0-15.26,15.26c0,.23,0,.46,0,.69a14.9,14.9,0,0,1-4.65,11.79,15.2,15.2,0,0,0-5,11.3,15.42,15.42,0,0,0,.22,2.56H89.7a15.27,15.27,0,0,0-12.89,23.42,6.16,6.16,0,0,1-1.68,8.31,15.26,15.26,0,0,0,7.59,27.68c.46,0,.92.05,1.37,0a50.91,50.91,0,0,1,21.1,4.5,41.67,41.67,0,0,0,17.06,3.53H73.73a41.7,41.7,0,0,1-17.06-3.53,50.91,50.91,0,0,0-21.1-4.5c-.45,0-.91,0-1.37,0a15.26,15.26,0,0,1-7.58-27.68,6.18,6.18,0,0,0,1.68-8.31A15.25,15.25,0,0,1,41.18,200h.23a14.42,14.42,0,0,1-.23-2.56,15.24,15.24,0,0,1,5-11.3,14.86,14.86,0,0,0,4.65-11.79c0-.23,0-.46,0-.69a15.26,15.26,0,0,1,15.26-15.26l.61,0a15.26,15.26,0,0,1,6.54-17.2A8,8,0,0,0,77,134.25V134a15.25,15.25,0,0,1,15.25-15.25c.34,0,.67,0,1,0a15.14,15.14,0,0,1-.89-7.26,15.26,15.26,0,0,1,25.66-9.21c0-.3,0-.62,0-.93a15.26,15.26,0,0,1,30.46-1.24A15.24,15.24,0,0,0,140.92,111.53Z"/><circle class="cls-5" cx="148.48" cy="146.92" r="6"/><circle class="cls-5" cx="90.31" cy="138.83" r="6"/><circle class="cls-5" cx="67.33" cy="195.3" r="6"/><circle class="cls-5" cx="44.33" cy="240.89" r="6"/><circle class="cls-5" cx="198.25" cy="189.3" r="6"/><circle class="cls-5" cx="106.39" cy="189.3" r="6"/><circle class="cls-5" cx="210.24" cy="234.89" r="6"/><circle class="cls-5" cx="154.47" cy="192.09" r="6"/><path class="cls-6" d="M133.9,201.29h0a38.76,38.76,0,0,1,38.76,38.76v18.73a12.5,12.5,0,0,1-12.5,12.5H107.64a12.5,12.5,0,0,1-12.5-12.5V240.05A38.76,38.76,0,0,1,133.9,201.29Z"/><path class="cls-7" d="M130.8,271.28H107.64a12.5,12.5,0,0,1-12.5-12.5V240.05a38.76,38.76,0,0,1,50.34-37,38.75,38.75,0,0,0-27.18,37v18.73A12.5,12.5,0,0,0,130.8,271.28Z"/><path class="cls-11" d="M46.47,294.89H96.31a0,0,0,0,1,0,0v69.29A13.21,13.21,0,0,1,83.1,377.39H59.68a13.21,13.21,0,0,1-13.21-13.21V294.89A0,0,0,0,1,46.47,294.89Z"/><path class="cls-11" d="M407.74,294.89h49.84a0,0,0,0,1,0,0v69.29a13.21,13.21,0,0,1-13.21,13.21H421a13.21,13.21,0,0,1-13.21-13.21V294.89A0,0,0,0,1,407.74,294.89Z"/><rect class="cls-10" x="10.13" y="257.89" width="490.53" height="37" rx="8.56"/><path class="cls-12" d="M500.66,271.83v14.5a8.56,8.56,0,0,1-8.56,8.56H18.69a8.56,8.56,0,0,1-8.56-8.56v-14.5a8.56,8.56,0,0,0,8.56,8.56H492.1A8.56,8.56,0,0,0,500.66,271.83Z"/><path class="cls-13" d="M96.31,313.39v-18.5H45.74v69.29A13.2,13.2,0,0,0,59,377.39h18a13.2,13.2,0,0,1-13.21-13.21V313.39Z"/><path class="cls-13" d="M458,313.39v-18.5H407.38v69.29a13.2,13.2,0,0,0,13.21,13.21h18a13.2,13.2,0,0,1-13.21-13.21V313.39Z"/><path class="cls-11" d="M345.42,294.89h49.84a0,0,0,0,1,0,0v40.29a13.21,13.21,0,0,1-13.21,13.21H358.63a13.21,13.21,0,0,1-13.21-13.21V294.89A0,0,0,0,1,345.42,294.89Z"/><path class="cls-13" d="M395.63,306.88v-12H345.06v44.93c0,4.73,5.91,8.57,13.21,8.57h18c-7.3,0-13.21-3.84-13.21-8.57V306.88Z"/><path class="cls-11" d="M109,294.89h49.84a0,0,0,0,1,0,0v40.29a13.21,13.21,0,0,1-13.21,13.21H122.19A13.21,13.21,0,0,1,109,335.18V294.89A0,0,0,0,1,109,294.89Z"/><path class="cls-13" d="M159.18,306.88v-12H108.61v44.93c0,4.73,5.91,8.57,13.21,8.57h18c-7.3,0-13.21-3.84-13.21-8.57V306.88Z"/><path class="cls-14" d="M461.85,228.73a4,4,0,0,1-2.81-4.35c0-.24,0-.47,0-.71v-9.33a1.52,1.52,0,0,0-1.52-1.53H449.8a18,18,0,0,0-16.86,11.77,5.93,5.93,0,0,1-4.16,3.86,14.56,14.56,0,0,0,3,28.82h25.47a14.92,14.92,0,0,0,14.84-12.14A14.64,14.64,0,0,0,461.85,228.73Z"/><path class="cls-15" d="M458.52,213.18a18,18,0,0,0-13.28,11.4,5.92,5.92,0,0,1-4.16,3.85,14.57,14.57,0,0,0,3,28.83h-12.3a14.57,14.57,0,0,1-3-28.83,6,6,0,0,0,4.17-3.85,18,18,0,0,1,16.86-11.77h7.73A1.47,1.47,0,0,1,458.52,213.18Z"/></g></svg>