<svg xmlns="http://www.w3.org/2000/svg" viewBox="0 0 48 48"><title>19-pizza</title><g id="_19-pizza" data-name="19-pizza"><path d="M35,37l-1.29,3.86-.05.07a5.077,5.077,0,0,0-2.25-.85A26.969,26.969,0,0,1,7.918,16.591a4.913,4.913,0,0,0-1.48-3l5.36-1.66.05.14a3.942,3.942,0,0,1,1.44,3.11,28.061,28.061,0,0,1-.32,3.53,5.463,5.463,0,0,0,.58,3.43,7.838,7.838,0,0,0,3.18,2.38,9.62,9.62,0,0,1,3.851,3.351c.7,1.17.99,2.58,1.8,3.68a8.367,8.367,0,0,0,2.58,2.1,10.9,10.9,0,0,0,4.46,1.69c.62.05,1.25.01,1.87.1A9.962,9.962,0,0,1,35,37Z" style="fill:#faa48c"/><path d="M31.409,40.082a5.077,5.077,0,0,1,2.25.85,3.5,3.5,0,0,1,.49.37,3.386,3.386,0,0,1,1.18,2.46c.02,1.9-2.29,3.541-5.02,3.191A33.6,33.6,0,0,1,1.048,17.691c-.35-2.72,1.28-5.02,3.17-5.02h.02a3.291,3.291,0,0,1,2.2.92,4.913,4.913,0,0,1,1.48,3A26.969,26.969,0,0,0,31.409,40.082Z" style="fill:#faa68e"/><path d="M46,4V27a2.015,2.015,0,0,1-2,2,2.006,2.006,0,0,1-2-2V26a1,1,0,0,0-2,0V39a2.015,2.015,0,0,1-2,2,2.006,2.006,0,0,1-2-2V34l-1,3a9.962,9.962,0,0,0-3.71-1.56c-.62-.09-1.25-.05-1.87-.1a10.9,10.9,0,0,1-4.46-1.69,8.367,8.367,0,0,1-2.58-2.1c-.81-1.1-1.1-2.51-1.8-3.68a9.62,9.62,0,0,0-3.851-3.351,7.838,7.838,0,0,1-3.18-2.38,5.463,5.463,0,0,1-.58-3.43,28.061,28.061,0,0,0,.32-3.53,3.942,3.942,0,0,0-1.44-3.11l-.05-.14v-.01L47,1Zm-7,7a2,2,0,1,0-2,2A2.006,2.006,0,0,0,39,11Zm-7,6a2,2,0,1,0-2,2A2.006,2.006,0,0,0,32,17Zm0,11a3,3,0,1,0-3,3A3,3,0,0,0,32,28ZM23,18a3,3,0,1,0-3,3A3,3,0,0,0,23,18Z" style="fill:#ffe89c"/><path d="M31.409,40.082a5.077,5.077,0,0,1,2.25.85,3.5,3.5,0,0,1,.49.37,3.386,3.386,0,0,1,1.18,2.46c.02,1.9-2.29,3.541-5.02,3.191A33.6,33.6,0,0,1,1.048,17.691c-.35-2.72,1.28-5.02,3.17-5.02h.02a3.291,3.291,0,0,1,2.2.92,4.913,4.913,0,0,1,1.48,3A26.969,26.969,0,0,0,31.409,40.082Z" style="fill:#faa68e"/><path d="M35.329,43.762a3.386,3.386,0,0,0-1.18-2.46,3.5,3.5,0,0,0-.49-.37,5.077,5.077,0,0,0-2.25-.85A26.969,26.969,0,0,1,7.918,16.591a4.913,4.913,0,0,0-1.48-3,3.291,3.291,0,0,0-2.2-.92h-.02A3.36,3.36,0,0,0,1.3,15.206,2.418,2.418,0,0,1,2.218,15h.02a3.291,3.291,0,0,1,2.2.92,4.913,4.913,0,0,1,1.48,3A26.968,26.968,0,0,0,29.409,42.412a5.077,5.077,0,0,1,2.25.85,3.5,3.5,0,0,1,.49.37,3.386,3.386,0,0,1,1.18,2.46,2.339,2.339,0,0,1-.058.417A3.179,3.179,0,0,0,35.329,43.762Z" style="fill:#ffbeaa"/><path d="M8.918,15.591a5.086,5.086,0,0,0-.995-2.46l-1.485.46a4.913,4.913,0,0,1,1.48,3A26.969,26.969,0,0,0,31.409,40.082a5.077,5.077,0,0,1,2.25.85l.05-.07.418-1.249a5.265,5.265,0,0,0-1.718-.531A26.97,26.97,0,0,1,8.918,15.591Z" style="fill:#e89882"/><circle cx="36.999" cy="11.001" r="3" style="fill:#faa68e"/><circle cx="29.999" cy="17.001" r="3" style="fill:#faa68e"/><circle cx="28.999" cy="28.002" r="4" style="fill:#faa68e"/><circle cx="19.999" cy="18.001" r="4" style="fill:#faa68e"/><circle cx="36.999" cy="11.001" r="2" style="fill:#d6475c"/><circle cx="28.999" cy="28.002" r="3" style="fill:#d6475c"/><circle cx="19.999" cy="18.001" r="3" style="fill:#d6475c"/><circle cx="29.999" cy="17.001" r="2" style="fill:#d6475c"/><path d="M40,26V39a2.015,2.015,0,0,1-2,2,2.006,2.006,0,0,1-2-2V34L46,4V27a2.015,2.015,0,0,1-2,2,2.006,2.006,0,0,1-2-2V26a1,1,0,0,0-2,0Z" style="fill:#ffe89c"/><path d="M40,24a.987.987,0,0,0-.822.464L39,25V38a1.991,1.991,0,0,1-2.82,1.819A2,2,0,0,0,38,41a2.015,2.015,0,0,0,2-2V26a1,1,0,0,1,1-1A1,1,0,0,0,40,24Z" style="fill:#fad17f"/><path d="M45,7V26a2.016,2.016,0,0,1-2,2,1.99,1.99,0,0,1-.819-.181A2,2,0,0,0,44,29a2.015,2.015,0,0,0,2-2V4Z" style="fill:#fad17f"/><circle cx="34.499" cy="22.501" r="1.5" style="fill:#4e535e"/><circle cx="37.499" cy="17.5" r="1.5" style="fill:#fcf2b6"/><circle cx="24.499" cy="13.5" r="1.5" style="fill:#fcf2b6"/><circle cx="31.499" cy="9.5" r="1.5" style="fill:#fcf2b6"/><circle cx="25.499" cy="21.5" r="1.5" style="fill:#fcf2b6"/><circle cx="35.499" cy="27.5" r="1.5" style="fill:#fcf2b6"/><circle cx="27.499" cy="10.501" r="1.5" style="fill:#4e535e"/><circle cx="21.499" cy="24.501" r="1.5" style="fill:#4e535e"/><ellipse cx="30.003" cy="42.987" rx="1.642" ry="2.286" transform="translate(-21.612 33.823) rotate(-45.02)" style="fill:#f6fafd"/><ellipse cx="26" cy="42" rx="0.825" ry="1.148" transform="translate(-22.087 30.703) rotate(-45.02)" style="fill:#f6fafd"/><ellipse cx="21" cy="17" rx="0.825" ry="1.148" transform="translate(-5.869 19.838) rotate(-45.02)" style="fill:#f6fafd"/><ellipse cx="38" cy="38" rx="0.825" ry="1.148" transform="translate(-15.74 38.018) rotate(-45.02)" style="fill:#f6fafd"/><ellipse cx="29.746" cy="26.5" rx="0.413" ry="0.574" transform="translate(-10.025 28.809) rotate(-45.02)" style="fill:#f6fafd"/><ellipse cx="30.746" cy="16.5" rx="0.413" ry="0.574" transform="translate(-2.659 26.585) rotate(-45.02)" style="fill:#f6fafd"/><ellipse cx="37.746" cy="10.5" rx="0.413" ry="0.574" transform="translate(3.637 29.778) rotate(-45.02)" style="fill:#f6fafd"/><ellipse cx="43.746" cy="25.5" rx="0.413" ry="0.574" transform="translate(-5.214 38.419) rotate(-45.02)" style="fill:#f6fafd"/><ellipse cx="37.746" cy="35.5" rx="0.413" ry="0.574" transform="translate(-14.046 37.106) rotate(-45.02)" style="fill:#f6fafd"/><path d="M2.038,17.562A4.092,4.092,0,0,1,2.9,14.353a1.729,1.729,0,0,1,1.334-.681c1.31.012,2.468,1.322,2.692,3.044a27.96,27.96,0,0,0,17.716,22.7l.716-1.867A25.966,25.966,0,0,1,8.911,16.463,6.2,6.2,0,0,0,8.1,14.12l3.372-1.046a3.153,3.153,0,0,1,.819,2.145c.01.241,0,.482-.01.722l2,.118a9.133,9.133,0,0,0,.012-.921,5.6,5.6,0,0,0-.767-2.7L36.3,5.369,35.7,3.459,6.64,12.478a4.149,4.149,0,0,0-2.384-.806,3.762,3.762,0,0,0-2.847,1.349A6.1,6.1,0,0,0,.054,17.812a34.976,34.976,0,0,0,2.188,8.557L4.1,25.633A33.069,33.069,0,0,1,2.038,17.562Z"/><path d="M47.714.3A1,1,0,0,0,46.7.045l-9,2.793.592,1.91,7.139-2.216-.384,1.152-3.666,11,1.9.632L45,10.163V17h2V4.162l.949-2.846A1,1,0,0,0,47.714.3Z"/><rect x="45" y="19" width="2" height="2"/><path d="M45,27a1,1,0,0,1-2,0V26a2,2,0,0,0-4,0V39a1,1,0,0,1-2,0V38H35.721l.666-2H37V34a1,1,0,0,0-1.949-.316L33.106,39.52a6.3,6.3,0,0,0-1.574-.431,26.358,26.358,0,0,1-4.746-1.042l-.608,1.9a28.325,28.325,0,0,0,5.1,1.121c1.727.226,3.037,1.383,3.049,2.7a1.808,1.808,0,0,1-.68,1.331,4.094,4.094,0,0,1-3.211.863A32.51,32.51,0,0,1,4.942,27.57l-1.807.856a34.493,34.493,0,0,0,27.053,19.52,6.839,6.839,0,0,0,.843.053,5.95,5.95,0,0,0,3.949-1.408,3.762,3.762,0,0,0,1.348-2.844,4.355,4.355,0,0,0-1.478-3.135l.271-.814A2.993,2.993,0,0,0,41,39V27a3,3,0,0,0,6,0V23H45Z"/><rect x="40.279" y="17" width="2.108" height="2" transform="translate(11.181 51.516) rotate(-71.556)"/><path d="M20,22a4,4,0,1,0-4-4A4,4,0,0,0,20,22Zm0-6a2,2,0,1,1-2,2A2,2,0,0,1,20,16Z"/><path d="M25,28a4,4,0,1,0,4-4A4,4,0,0,0,25,28Zm4-2a2,2,0,1,1-2,2A2,2,0,0,1,29,26Z"/><path d="M34,11a3,3,0,1,0,3-3A3,3,0,0,0,34,11Zm3-1a1,1,0,1,1-1,1A1,1,0,0,1,37,10Z"/><path d="M33,17a3,3,0,1,0-3,3A3,3,0,0,0,33,17Zm-4,0a1,1,0,1,1,1,1A1,1,0,0,1,29,17Z"/><path d="M14.038,18.128l-1.984-.256c-.032.248-.061.5-.083.743a6.347,6.347,0,0,0,.733,4.057,7.816,7.816,0,0,0,3.163,2.521l.382.207a8.991,8.991,0,0,1,3.476,2.975,11.217,11.217,0,0,1,.692,1.5,10.131,10.131,0,0,0,1.158,2.268,9.262,9.262,0,0,0,2.881,2.369,11.77,11.77,0,0,0,4.878,1.824c.281.024.562.031.844.038a7.946,7.946,0,0,1,.964.06,6.653,6.653,0,0,1,1.615.486l.788-1.838a8.647,8.647,0,0,0-2.111-.627,9.862,9.862,0,0,0-1.209-.08c-.24-.006-.48-.011-.72-.031a10,10,0,0,1-4.033-1.555,7.317,7.317,0,0,1-2.284-1.83,8.45,8.45,0,0,1-.918-1.837,12.9,12.9,0,0,0-.825-1.765,10.843,10.843,0,0,0-4.235-3.709l-.394-.212A6.2,6.2,0,0,1,14.4,21.609a4.493,4.493,0,0,1-.436-2.812C13.982,18.574,14.009,18.351,14.038,18.128Z"/></g></svg>