<svg xmlns="http://www.w3.org/2000/svg" viewBox="0 0 64 64"><defs><style>.cls-1{isolation:isolate;}.cls-10,.cls-2{fill:#fff;}.cls-3{fill:#aa3f35;}.cls-4{fill:#333;}.cls-5,.cls-6,.cls-7{fill:none;}.cls-6,.cls-7{stroke:#000;stroke-linecap:round;stroke-linejoin:round;}.cls-6{stroke-width:2px;}.cls-8{opacity:0.25;mix-blend-mode:multiply;}.cls-10,.cls-9{mix-blend-mode:overlay;}</style></defs><title>Icon Color</title><g class="cls-1"><g id="Layer_1" data-name="Layer 1"><g id="Vector"><path class="cls-2" d="M55,36.33a25,25,0,0,0-6.3-8.85c5-1.46,9.54-3,13.71-4.62C62.74,27.63,59.88,32.5,55,36.33Z"/><path class="cls-3" d="M62.39,22.86c-4.17,1.58-8.76,3.16-13.71,4.62h0l-.26-.24c-.15-.14-.31-.27-.47-.4l-.41-.34c-.32-.26-.65-.5-1-.74s-.54-.38-.82-.56c-.49-.33-1-.64-1.52-.93a24.69,24.69,0,0,0-2.79-1.34c-.23-.1-.47-.19-.7-.27A23.09,23.09,0,0,0,38,21.82l-.84-.2-.6-.11c-.24-.05-.48-.09-.73-.12-.56-.09-1.12-.16-1.7-.2-.4,0-.81-.06-1.22-.08H26.44c-.83,0-1.64,0-2.44.11a24.64,24.64,0,0,0-8.9,2.63l-.12.07a24.75,24.75,0,0,0-3.92,2.53l-.09.08a25.32,25.32,0,0,0-2.12,1.89c-.35.35-.68.69-1,1.07A25,25,0,0,1,13.31,14h0l.1-.12a24.73,24.73,0,0,1,11.47-8L25,5.85l.12,0c.35-.11.7-.22,1.05-.31s.71-.19,1.07-.27L32.74,4A24.85,24.85,0,0,1,62.1,21.32c.06.2.11.38.17.57a.17.17,0,0,0,0,.07C62.34,22.26,62.36,22.56,62.39,22.86Z"/><path class="cls-4" d="M38,21.82l-.84-.2-.6-.11c-.24-.05-.48-.09-.73-.12-.56-.09-1.12-.16-1.7-.2-.4,0-.81-.06-1.22-.08H27.71L24.82,8.25a4.77,4.77,0,0,1,.07-2.35v0a.28.28,0,0,1,.13,0l.12,0c.35-.11.7-.22,1.05-.31s.71-.19,1.07-.27L32.74,4l.54-.1a4.86,4.86,0,0,1,1.15,2.19Z"/><path class="cls-5" d="M13.4,13.71s-2.24,6.73,1.74,10.36"/><path class="cls-5" d="M19.38,9.07s-1.44,7.6,2.53,11.24"/><path class="cls-5" d="M47.35,6s4.56,6.24,2.53,11.23"/><path class="cls-5" d="M40,4.4s4.56,6.24,2.53,11.23"/><path class="cls-2" d="M24,60.56A31.55,31.55,0,0,1,8.85,55.91c-4-2.57-6.6-6-7.18-9.82A199.57,199.57,0,0,0,23.4,47.91V58.23A5,5,0,0,0,24,60.56Z"/><path class="cls-2" d="M56.84,46.09c-1.22,8-11.56,14.36-24.23,14.54a4.92,4.92,0,0,0,.65-2.4V48A197.15,197.15,0,0,0,56.84,46.09Z"/><path class="cls-3" d="M24,21.21a4.75,4.75,0,0,0-.6,2.3v24.4A199.57,199.57,0,0,1,1.67,46.09q-.06-.48-.09-1c0-.21,0-.42,0-.62a25,25,0,0,1,6.23-15c.32-.38.65-.72,1-1.07A25.32,25.32,0,0,1,11,26.52l.09-.08A24.75,24.75,0,0,1,15,23.91l.12-.07A24.64,24.64,0,0,1,24,21.21Z"/><path class="cls-3" d="M56.93,45.12c0,.32,0,.65-.09,1A197.15,197.15,0,0,1,33.26,48V23.51a4.79,4.79,0,0,0-.65-2.38,4.89,4.89,0,0,0-.54,0h.82c.41,0,.82,0,1.22.08.58,0,1.14.11,1.7.2.25,0,.49.07.73.12l.6.11.84.2a23.09,23.09,0,0,1,2.72.83c.23.08.47.17.7.27a24.69,24.69,0,0,1,2.79,1.34c.52.29,1,.6,1.52.93.28.18.55.37.82.56s.66.48,1,.74l.41.34c.16.13.32.26.47.4l.26.24h0A25,25,0,0,1,55,36.33a24.29,24.29,0,0,1,1.91,8.18C56.91,44.71,56.92,44.91,56.93,45.12Z"/><circle class="cls-2" cx="20.09" cy="53.3" r="0.76"/><path class="cls-2" d="M35.18,55.21a2.23,2.23,0,0,1-1.92,2.21V53A2.23,2.23,0,0,1,35.18,55.21Z"/><circle class="cls-2" cx="42.71" cy="53.72" r="0.42"/><circle class="cls-2" cx="12.53" cy="52.42" r="0.46"/><path class="cls-4" d="M33.26,23.51V58.23a4.92,4.92,0,0,1-.65,2.4H26.44c-.81,0-1.63,0-2.43-.08a5,5,0,0,1-.61-2.33V23.51a4.75,4.75,0,0,1,.6-2.3c.8-.07,1.61-.11,2.44-.11h5.63a4.89,4.89,0,0,1,.54,0A4.79,4.79,0,0,1,33.26,23.51Z"/><path class="cls-5" d="M11.06,26.3s-3.08,7.1,0,11.52"/><path class="cls-5" d="M17.92,23.11s-3.08,7.09,0,11.52"/><path class="cls-5" d="M45.87,26.3s3.08,7.1,0,11.52"/><path class="cls-5" d="M39,23.11s3.07,7.09,0,11.52"/></g><g id="Line"><path class="cls-6" d="M55,36.33a25,25,0,0,0-6.3-8.85c5-1.46,9.54-3,13.71-4.62C62.74,27.63,59.88,32.5,55,36.33Z"/><path class="cls-6" d="M62.39,22.86c-4.17,1.58-8.76,3.16-13.71,4.62h0l-.26-.24c-.15-.14-.31-.27-.47-.4l-.41-.34c-.32-.26-.65-.5-1-.74s-.54-.38-.82-.56c-.49-.33-1-.64-1.52-.93a24.69,24.69,0,0,0-2.79-1.34c-.23-.1-.47-.19-.7-.27A23.09,23.09,0,0,0,38,21.82l-.84-.2-.6-.11c-.24-.05-.48-.09-.73-.12-.56-.09-1.12-.16-1.7-.2-.4,0-.81-.06-1.22-.08H26.44c-.83,0-1.64,0-2.44.11a24.64,24.64,0,0,0-8.9,2.63l-.12.07a24.75,24.75,0,0,0-3.92,2.53l-.09.08a25.32,25.32,0,0,0-2.12,1.89c-.35.35-.68.69-1,1.07A25,25,0,0,1,13.31,14h0l.1-.12a24.73,24.73,0,0,1,11.47-8L25,5.85l.12,0c.35-.11.7-.22,1.05-.31s.71-.19,1.07-.27L32.74,4A24.85,24.85,0,0,1,62.1,21.32c.06.2.11.38.17.57a.17.17,0,0,0,0,.07C62.34,22.26,62.36,22.56,62.39,22.86Z"/><path class="cls-6" d="M38,21.82l-.84-.2-.6-.11c-.24-.05-.48-.09-.73-.12-.56-.09-1.12-.16-1.7-.2-.4,0-.81-.06-1.22-.08H27.71L24.82,8.25a4.77,4.77,0,0,1,.07-2.35v0a.28.28,0,0,1,.13,0l.12,0c.35-.11.7-.22,1.05-.31s.71-.19,1.07-.27L32.74,4l.54-.1a4.86,4.86,0,0,1,1.15,2.19Z"/><path class="cls-6" d="M13.4,13.71s-2.24,6.73,1.74,10.36"/><path class="cls-6" d="M19.38,9.07s-1.44,7.6,2.53,11.24"/><path class="cls-6" d="M47.35,6s4.56,6.24,2.53,11.23"/><path class="cls-6" d="M40,4.4s4.56,6.24,2.53,11.23"/><path class="cls-6" d="M24,60.56A31.55,31.55,0,0,1,8.85,55.91c-4-2.57-6.6-6-7.18-9.82A199.57,199.57,0,0,0,23.4,47.91V58.23A5,5,0,0,0,24,60.56Z"/><path class="cls-6" d="M56.84,46.09c-1.22,8-11.56,14.36-24.23,14.54a4.92,4.92,0,0,0,.65-2.4V48A197.15,197.15,0,0,0,56.84,46.09Z"/><path class="cls-6" d="M24,21.21a4.75,4.75,0,0,0-.6,2.3v24.4A199.57,199.57,0,0,1,1.67,46.09q-.06-.48-.09-1c0-.21,0-.42,0-.62a25,25,0,0,1,6.23-15c.32-.38.65-.72,1-1.07A25.32,25.32,0,0,1,11,26.52l.09-.08A24.75,24.75,0,0,1,15,23.91l.12-.07A24.64,24.64,0,0,1,24,21.21Z"/><path class="cls-6" d="M56.93,45.12c0,.32,0,.65-.09,1A197.15,197.15,0,0,1,33.26,48V23.51a4.79,4.79,0,0,0-.65-2.38,4.89,4.89,0,0,0-.54,0h.82c.41,0,.82,0,1.22.08.58,0,1.14.11,1.7.2.25,0,.49.07.73.12l.6.11.84.2a23.09,23.09,0,0,1,2.72.83c.23.08.47.17.7.27a24.69,24.69,0,0,1,2.79,1.34c.52.29,1,.6,1.52.93.28.18.55.37.82.56s.66.48,1,.74l.41.34c.16.13.32.26.47.4l.26.24h0A25,25,0,0,1,55,36.33a24.29,24.29,0,0,1,1.91,8.18C56.91,44.71,56.92,44.91,56.93,45.12Z"/><circle class="cls-7" cx="20.09" cy="53.3" r="0.76"/><path class="cls-7" d="M35.18,55.21a2.23,2.23,0,0,1-1.92,2.21V53A2.23,2.23,0,0,1,35.18,55.21Z"/><circle class="cls-7" cx="42.71" cy="53.72" r="0.42"/><circle class="cls-7" cx="12.53" cy="52.42" r="0.46"/><path class="cls-6" d="M33.26,23.51V58.23a4.92,4.92,0,0,1-.65,2.4H26.44c-.81,0-1.63,0-2.43-.08a5,5,0,0,1-.61-2.33V23.51a4.75,4.75,0,0,1,.6-2.3c.8-.07,1.61-.11,2.44-.11h5.63a4.89,4.89,0,0,1,.54,0A4.79,4.79,0,0,1,33.26,23.51Z"/><path class="cls-6" d="M11.06,26.3s-3.08,7.1,0,11.52"/><path class="cls-6" d="M17.92,23.11s-3.08,7.09,0,11.52"/><path class="cls-6" d="M45.87,26.3s3.08,7.1,0,11.52"/><path class="cls-6" d="M39,23.11s3.07,7.09,0,11.52"/></g><g id="Shadow" class="cls-8"><path d="M62.39,22.86c0-.3,0-.6-.11-.9a.17.17,0,0,1,0-.07c-.06-.19-.11-.37-.17-.57A24.85,24.85,0,0,0,32.74,4L27.57,5.16a24.93,24.93,0,0,1,14.6,16.16c.06.2.11.38.17.57a.17.17,0,0,0,0,.07c.06.3.08.6.11.9.35,4.77-2.51,9.64-7.41,13.47A24.29,24.29,0,0,1,37,44.51c0,.2,0,.4,0,.61s0,.65-.09,1c-1,6.59-8.12,12-17.64,13.86a36.09,36.09,0,0,0,4.74.61c.8,0,1.62.08,2.43.08h6.17c12.67-.18,23-6.5,24.23-14.54,0-.32.07-.65.09-1s0-.41,0-.61A24.29,24.29,0,0,0,55,36.33C59.88,32.5,62.74,27.63,62.39,22.86Z"/></g><g id="Highligth" class="cls-9"><path class="cls-10" d="M24.91,55.91c-4-2.57-6.6-6-7.18-9.82q-.06-.48-.09-1c0-.21,0-.42,0-.62a25,25,0,0,1,6.23-15A25,25,0,0,1,29.37,14h0l.08-.28,0,.15A24.73,24.73,0,0,1,41,5.9v0a.28.28,0,0,1,.13,0l.12,0c.35-.11.7-.22,1-.31s.71-.19,1.07-.27L46,4.62A24.58,24.58,0,0,0,32.74,4L27.26,5.23c-.36.08-.72.17-1.07.27s-.7.2-1.05.31l-.12,0a.28.28,0,0,0-.13,0v0a24.73,24.73,0,0,0-11.47,8l0-.15s0,.1-.09.28h0A25,25,0,0,0,7.85,29.48a25,25,0,0,0-6.23,15c0,.2,0,.41,0,.62s0,.64.09,1c.58,3.83,3.22,7.25,7.18,9.82A31.55,31.55,0,0,0,24,60.56c.8,0,1.62.08,2.43.08h6.17a37.45,37.45,0,0,0,4.68-.35A30.37,30.37,0,0,1,24.91,55.91Z"/></g></g></g></svg>