<svg xmlns="http://www.w3.org/2000/svg" version="1.1" xmlns:xlink="http://www.w3.org/1999/xlink" xmlns:svgjs="http://svgjs.dev/svgjs" width="1500" height="1500" viewBox="0 0 1500 1500"><rect width="1500" height="1500" fill="#b1454a"></rect><g transform="matrix(0.6666666666666666,0,0,0.6666666666666666,249.80769641838333,357.5861426121101)"><svg viewBox="0 0 317 248" data-background-color="#b1454a" preserveAspectRatio="xMidYMid meet" height="1173" width="1500" xmlns="http://www.w3.org/2000/svg" xmlns:xlink="http://www.w3.org/1999/xlink"><g id="tight-bounds" transform="matrix(1,0,0,1,0.060960235372476745,0.4483844401492263)"><svg viewBox="0 0 316.87807952925505 247.2" height="247.2" width="316.87807952925505"><g><svg viewBox="0 0 395.52 308.5494084830609" height="247.2" width="316.87807952925505"><g transform="matrix(1,0,0,1,0,190.69591283088698)"><svg viewBox="0 0 395.52 117.85349565217392" height="117.85349565217392" width="395.52"><g id="textblocktransform"><svg viewBox="0 0 395.52 117.85349565217392" height="117.85349565217392" width="395.52" id="textblock"><g><svg viewBox="0 0 395.52 117.85349565217392" height="117.85349565217392" width="395.52"><g transform="matrix(1,0,0,1,0,0)"><svg width="395.52" viewBox="0.38 -40.4 172.48000000000002 51.39999999999999" height="117.85349565217392" data-palette-color="#f5f5f5"><path d="M11.63 11L7.63 11 11.8 0 13.08-2.88 22.03-27.13 26.05-27.13 11.63 11ZM14.48 0L10.65 0 0.38-27.13 4.65-27.13 14.48 0ZM38.6 0.45L38.6 0.45Q36.07 0.45 34.12-0.48 32.17-1.4 31.05-3.5 29.92-5.6 29.92-9.13L29.92-9.13 29.92-27.13 33.92-27.13 33.92-9.3Q33.92-5.83 35.47-4.46 37.02-3.1 39.47-3.1L39.47-3.1Q40.7-3.1 42.04-3.48 43.37-3.85 44.62-4.65 45.87-5.45 46.85-6.73L46.85-6.73 46.85-27.13 50.85-27.13 50.85 0 47.47 0 47.2-2.98 46.95-2.98Q45.25-1.28 43.1-0.41 40.95 0.45 38.6 0.45ZM62.4 0L58.4 0 58.4-27.13 61.77-27.13 62.05-24.05 62.32-24.05Q63.87-25.8 65.88-26.68 67.9-27.55 70.17-27.55L70.17-27.55Q72.42-27.55 74.2-26.63 75.97-25.7 77-23.61 78.02-21.53 78.02-18.03L78.02-18.03 78.02 0 74.07 0 74.07-17.78Q74.07-21.28 72.7-22.63 71.32-23.98 69.07-23.98L69.07-23.98Q67.95-23.98 66.73-23.6 65.52-23.23 64.4-22.41 63.27-21.6 62.4-20.25L62.4-20.25 62.4 0ZM93.52 0L89.52 0 89.52-17.78Q89.52-21.28 88.08-22.63 86.65-23.98 84.4-23.98L84.4-23.98Q83.25-23.98 81.96-23.59 80.67-23.2 79.46-22.26 78.25-21.33 77.34-19.7L77.34-19.7 76.34-22.93Q78.32-25.5 80.72-26.53 83.12-27.55 85.34-27.55L85.34-27.55Q87.7-27.55 89.55-26.61 91.4-25.68 92.46-23.58 93.52-21.48 93.52-17.95L93.52-17.95 93.52 0ZM116.99 0L112.99 0 112.99-40.4 116.99-40.4 116.99 0ZM128.54 0L124.54 0 124.54-27.13 128.54-27.13 128.54 0ZM126.54-33.02L126.54-33.02Q125.19-33.02 124.48-33.69 123.76-34.35 123.76-35.52L123.76-35.52Q123.76-36.73 124.48-37.4 125.19-38.08 126.54-38.08L126.54-38.08Q127.89-38.08 128.6-37.4 129.31-36.73 129.31-35.52L129.31-35.52Q129.31-34.35 128.6-33.69 127.89-33.02 126.54-33.02ZM142.59 0.48L142.59 0.48Q140.53 0.48 138.67 0.2 136.81-0.08 135.06-0.63L135.06-0.63 135.06-3.83Q137.06-3.23 138.89-2.96 140.71-2.7 142.59-2.7L142.59-2.7Q146.11-2.7 147.7-3.9 149.28-5.1 149.28-7.28L149.28-7.28Q149.28-9.13 148.34-10.11 147.39-11.1 145.11-11.58L145.11-11.58 141.44-12.33Q137.74-13.13 136.15-14.96 134.56-16.8 134.56-19.7L134.56-19.7Q134.56-23.13 137.2-25.34 139.84-27.55 145.31-27.55L145.31-27.55Q147.06-27.55 148.65-27.35 150.24-27.15 151.71-26.75L151.71-26.75 151.71-23.53Q150.06-23.98 148.55-24.18 147.03-24.38 145.39-24.38L145.39-24.38Q142.81-24.38 141.27-23.76 139.74-23.15 139.06-22.11 138.39-21.08 138.39-19.8L138.39-19.8Q138.39-18.2 139.28-17.15 140.19-16.1 142.44-15.6L142.44-15.6 146.11-14.85Q149.86-14.08 151.5-12.3 153.14-10.53 153.14-7.48L153.14-7.48Q153.14-3.8 150.45-1.66 147.76 0.48 142.59 0.48ZM168.68 0.48L168.68 0.48Q164.53 0.48 162.23-1.66 159.93-3.8 159.93-8.5L159.93-8.5 159.93-27.13 160.58-37 163.93-37 163.93-9.15Q163.93-5.73 165.34-4.35 166.76-2.98 169.56-2.98L169.56-2.98Q170.31-2.98 171.11-3.09 171.91-3.2 172.86-3.4L172.86-3.4 172.86-0.03Q171.86 0.23 170.81 0.35 169.76 0.48 168.68 0.48ZM172.46-23.83L154.83-23.83 154.83-27.13 172.46-27.13 172.46-23.83Z" opacity="1" transform="matrix(1,0,0,1,0,0)" fill="#f5f5f5" class="wordmark-text-0" data-fill-palette-color="primary" id="text-0"></path></svg></g></svg></g></svg></g></svg></g><g transform="matrix(1,0,0,1,84.1777761040795,0)"><svg viewBox="0 0 227.16444779184098 162.87353099130436" height="162.87353099130436" width="227.16444779184098"><g><svg xmlns="http://www.w3.org/2000/svg" xmlns:xlink="http://www.w3.org/1999/xlink" version="1.1" x="8" y="0" viewBox="1.983 13 96.01700008487494 74.059" enable-background="new 0 0 100 100" xml:space="preserve" height="162.87353099130436" width="211.16444779184098" class="icon-icon-0" data-fill-palette-color="accent" id="icon-0"><g fill="#f4858a" data-fill-palette-color="accent"><path d="M91.978 87.059H8.008A6.026 6.026 0 0 1 8.008 75.009H91.978A6.024 6.024 0 0 1 98 81.034 6.024 6.024 0 0 1 91.978 87.059" fill="#f4858a" data-fill-palette-color="accent"></path><path d="M38.912 58.799H8.008A6.026 6.026 0 0 1 1.983 52.774V19.025A6.026 6.026 0 0 1 8.008 13H38.912A6.027 6.027 0 0 1 44.937 19.025V52.774A6.027 6.027 0 0 1 38.912 58.799M14.033 46.748H32.886V25.051H14.033z" fill="#f4858a" data-fill-palette-color="accent"></path><path d="M91.978 26.88H61.473A6.027 6.027 0 0 1 61.473 14.829H91.978C95.304 14.829 98 17.527 98 20.854S95.304 26.88 91.978 26.88" fill="#f4858a" data-fill-palette-color="accent"></path><path d="M91.978 56.969H61.473A6.026 6.026 0 1 1 61.473 44.92H91.978C95.304 44.92 98 47.618 98 50.945S95.304 56.969 91.978 56.969" fill="#f4858a" data-fill-palette-color="accent"></path></g></svg></g></svg></g><g><rect width="44.85681586870703" height="10.628149862720559" y="151.2453811285838" x="311.3422238959205" fill="#f4858a" data-fill-palette-color="accent"></rect><rect width="44.85681586870703" height="10.628149862720559" y="151.2453811285838" x="39.32096023537247" fill="#f4858a" data-fill-palette-color="accent"></rect><rect width="44.85681586870703" height="10.628149862720559" y="129.98908140314268" x="311.3422238959205" fill="#f4858a" data-fill-palette-color="accent"></rect><rect width="44.85681586870703" height="10.628149862720559" y="129.98908140314268" x="39.32096023537247" fill="#f4858a" data-fill-palette-color="accent"></rect></g></svg></g><defs></defs></svg><rect width="316.87807952925505" height="247.2" fill="none" stroke="none" visibility="hidden"></rect></g></svg></g></svg>